<?xml version="1.0" encoding="utf-8"?>
<!-- Generator: Adobe Illustrator 19.1.0, SVG Export Plug-In . SVG Version: 6.00 Build 0)  -->
<svg version="1.1" id="Layer_1" xmlns="http://www.w3.org/2000/svg" xmlns:xlink="http://www.w3.org/1999/xlink" x="0px" y="0px"
	 viewBox="0 0 136.5 140.1" style="enable-background:new 0 0 136.5 140.1;" xml:space="preserve">
<style type="text/css">
	.st0{fill:none;}
</style>
<path d="M40.4,36.2L4.3,0L0,4.3l36.2,36.2C37.5,38.9,38.9,37.5,40.4,36.2z"/>
<path d="M95.5,99.8l36.7,36.7l4.3-4.3L99.8,95.5C98.4,97,97,98.5,95.5,99.8z"/>
<path d="M36.3,95.9L0,132.3l4.3,4.3l36.4-36.4C39.1,98.8,37.6,97.4,36.3,95.9z"/>
<path d="M99.9,40.9l36.6-36.6L132.3,0L95.7,36.6C97.2,37.9,98.6,39.3,99.9,40.9z"/>
<g>
	<rect x="58.4" y="114.5" width="18.9" height="6"/>
</g>
<g>
	<rect x="58.4" y="124.3" width="18.9" height="6"/>
</g>
<g>
	<rect x="58.4" y="134.1" width="18.9" height="6"/>
</g>
<g>
	<path class="st0" d="M74.7,91.7H61c2.2,0.6,4.4,1,6.8,1S72.5,92.3,74.7,91.7z"/>
	<path class="st0" d="M53.2,94.9c2.4,5.7,8.1,9.7,14.6,9.7s12.2-4,14.6-9.7c-4.3,2.4-9.3,3.7-14.6,3.7S57.6,97.3,53.2,94.9z"/>
	<path class="st0" d="M92.4,68.1c0-13.5-11-24.5-24.5-24.5s-24.5,11-24.5,24.5c0,6.9,2.8,13.1,7.4,17.6H85
		C89.5,81.2,92.4,75,92.4,68.1z"/>
	<path d="M45.9,85.7h4.8c-4.6-4.5-7.4-10.7-7.4-17.6c0-13.5,11-24.5,24.5-24.5s24.5,11,24.5,24.5c0,6.9-2.8,13.1-7.4,17.6h4.8v3
		c0,0.2,0,0.5,0,0.7c5.3-5.5,8.6-13,8.6-21.3c0-16.8-13.7-30.6-30.6-30.6S37.3,51.3,37.3,68.1c0,8.3,3.3,15.8,8.6,21.3
		c0-0.2,0-0.5,0-0.7V85.7z"/>
	<path d="M85,85.7H50.7c2.9,2.8,6.4,4.9,10.3,6h13.6C78.6,90.5,82.1,88.4,85,85.7z"/>
	<path d="M82.5,94.9c-2.4,5.7-8.1,9.7-14.6,9.7s-12.2-4-14.6-9.7c-2.7-1.5-5.1-3.4-7.3-5.5c0.4,11.8,10.1,21.2,21.9,21.2
		s21.5-9.5,21.9-21.2C87.6,91.6,85.2,93.4,82.5,94.9z"/>
	<path d="M89.8,85.7H85c-2.9,2.8-6.4,4.9-10.3,6h8.8c-0.2,1.1-0.6,2.2-1,3.2c2.7-1.5,5.1-3.4,7.3-5.5c0-0.2,0-0.5,0-0.7V85.7z"/>
	<path d="M53.2,94.9c-0.4-1-0.8-2.1-1-3.2H61c-3.9-1.1-7.5-3.2-10.3-6h-4.8v3c0,0.2,0,0.5,0,0.7C48.1,91.6,50.5,93.4,53.2,94.9z"/>
</g>
</svg>
