<?xml version="1.0" encoding="utf-8"?>
<!-- Generator: Adobe Illustrator 19.1.0, SVG Export Plug-In . SVG Version: 6.00 Build 0)  -->
<svg version="1.1" id="Layer_1" xmlns="http://www.w3.org/2000/svg" xmlns:xlink="http://www.w3.org/1999/xlink" x="0px" y="0px"
	 viewBox="0 0 171.5 154.6" style="enable-background:new 0 0 171.5 154.6;" xml:space="preserve">
<style type="text/css">
	.st0{fill:none;}
</style>
<path class="st0" d="M128.4,105.7L97.7,51.9c-3.3,1.4-6.9,2.2-10.8,2.2c-3.8,0-7.5-0.8-10.8-2.2l-31.5,55c5.1,4.4,8.6,10.6,9.3,17.6
	h63.5C118.3,116.8,122.4,110,128.4,105.7z"/>
<path d="M76.1,51.9c-1.9-0.8-3.6-1.8-5.2-3l-31.3,54.6c1.8,0.9,3.5,2.1,5,3.4L76.1,51.9z"/>
<path d="M128.4,105.7c1.6-1.2,3.4-2.2,5.2-3l-30.8-53.8c-1.6,1.2-3.4,2.2-5.2,3L128.4,105.7z"/>
<path d="M117.5,124.5H54c0.1,1,0.2,2,0.2,3s-0.1,2-0.2,3h63.5c-0.1-1-0.2-2-0.2-3S117.4,125.5,117.5,124.5z"/>
<path d="M62.8,27.1C62.8,13.8,73.6,3,86.9,3C100.2,3,111,13.8,111,27.1c0,7.9-3.8,14.8-9.6,19.2l1.5,2.6C109.6,44,114,36,114,27.1
	C114,12.1,101.8,0,86.9,0S59.8,12.1,59.8,27.1c0,9,4.4,16.9,11.1,21.9l1.5-2.6C66.6,41.9,62.8,34.9,62.8,27.1z"/>
<path d="M97.7,51.9l-1.5-2.6c-2.8,1.2-6,1.8-9.3,1.8c-3.3,0-6.4-0.7-9.3-1.8l-1.5,2.6c3.3,1.4,6.9,2.2,10.8,2.2
	C90.7,54.2,94.4,53.4,97.7,51.9z"/>
<path d="M96.2,49.3l1.5,2.6c1.9-0.8,3.6-1.8,5.2-3l-1.5-2.6C99.8,47.5,98,48.5,96.2,49.3z"/>
<path d="M77.6,49.3c-1.9-0.8-3.6-1.8-5.2-3l-1.5,2.6c1.6,1.2,3.4,2.2,5.2,3L77.6,49.3z"/>
<path d="M96.2,49.3l-1.5-2.6c-2.4,1-5,1.5-7.7,1.5s-5.3-0.5-7.7-1.5l-1.5,2.6c2.8,1.2,6,1.8,9.3,1.8C90.2,51.1,93.3,50.5,96.2,49.3z
	"/>
<path d="M65.8,27.1C65.8,15.5,75.3,6,86.9,6S108,15.5,108,27.1c0,6.7-3.2,12.7-8.1,16.6l1.5,2.6c5.8-4.4,9.6-11.4,9.6-19.2
	C111,13.8,100.2,3,86.9,3C73.6,3,62.8,13.8,62.8,27.1c0,7.9,3.8,14.8,9.6,19.2l1.5-2.6C69,39.8,65.8,33.8,65.8,27.1z"/>
<path d="M73.9,43.7l-1.5,2.6c1.6,1.2,3.3,2.2,5.2,3l1.5-2.6C77.3,45.9,75.5,44.9,73.9,43.7z"/>
<path d="M94.6,46.7l1.5,2.6c1.9-0.8,3.6-1.8,5.2-3l-1.5-2.6C98.3,44.9,96.5,45.9,94.6,46.7z"/>
<path d="M27.1,151.6C13.8,151.6,3,140.8,3,127.5s10.8-24.1,24.1-24.1c4,0,7.8,1,11.1,2.7l1.5-2.6c-3.8-2-8-3.1-12.6-3.1
	C12.1,100.4,0,112.6,0,127.5s12.1,27.1,27.1,27.1c13.9,0,25.4-10.6,26.9-24.1h-3C49.5,142.4,39.4,151.6,27.1,151.6z"/>
<path d="M44.7,107l-1.5,2.6c4.2,3.8,7.1,9,7.8,14.9h3C53.2,117.5,49.7,111.3,44.7,107z"/>
<path d="M43.1,109.6l1.5-2.6c-1.5-1.3-3.2-2.4-5-3.4l-1.5,2.6C40,107.1,41.6,108.3,43.1,109.6z"/>
<path d="M54,124.5h-3c0.1,1,0.2,2,0.2,3s-0.1,2-0.2,3h3c0.1-1,0.2-2,0.2-3S54.1,125.5,54,124.5z"/>
<path d="M27.1,148.6c-11.6,0-21.1-9.4-21.1-21.1s9.4-21.1,21.1-21.1c3.5,0,6.7,0.8,9.6,2.3l1.5-2.6c-3.3-1.7-7.1-2.7-11.1-2.7
	C13.8,103.5,3,114.2,3,127.5s10.8,24.1,24.1,24.1c12.3,0,22.4-9.2,23.9-21.1h-3C46.5,140.7,37.7,148.6,27.1,148.6z"/>
<path d="M43.1,109.6l-1.5,2.7c3.3,3.2,5.6,7.5,6.3,12.2h3C50.2,118.6,47.3,113.4,43.1,109.6z"/>
<path d="M48.1,127.5c0,1-0.1,2-0.2,3h3c0.1-1,0.2-2,0.2-3s-0.1-2-0.2-3h-3C48.1,125.5,48.1,126.5,48.1,127.5z"/>
<path d="M41.6,112.3l1.5-2.7c-1.5-1.3-3.2-2.5-5-3.4l-1.5,2.6C38.5,109.7,40.1,110.9,41.6,112.3z"/>
<path d="M144.4,100.4c-3.8,0-7.5,0.8-10.8,2.2l1.5,2.6c2.8-1.2,6-1.8,9.3-1.8c13.3,0,24.1,10.8,24.1,24.1s-10.8,24.1-24.1,24.1
	c-12.3,0-22.4-9.2-23.9-21.1h-3c1.5,13.5,13,24.1,26.9,24.1c14.9,0,27.1-12.1,27.1-27.1S159.3,100.4,144.4,100.4z"/>
<path d="M129.9,108.3l-1.5-2.6c-6,4.4-10.1,11.1-10.9,18.8h3C121.3,117.9,124.8,112.1,129.9,108.3z"/>
<path d="M120.3,127.5c0-1,0.1-2,0.2-3h-3c-0.1,1-0.2,2-0.2,3s0.1,2,0.2,3h3C120.4,129.5,120.3,128.5,120.3,127.5z"/>
<path d="M129.9,108.3c1.6-1.2,3.3-2.2,5.2-3l-1.5-2.6c-1.9,0.8-3.6,1.8-5.2,3L129.9,108.3z"/>
<path d="M131.4,110.9l-1.5-2.6c-5.1,3.8-8.6,9.6-9.4,16.2h3C124.3,119,127.2,114.2,131.4,110.9z"/>
<path d="M144.4,106.5c11.6,0,21.1,9.4,21.1,21.1s-9.4,21.1-21.1,21.1c-10.6,0-19.4-7.9-20.8-18.1h-3c1.5,11.9,11.6,21.1,23.9,21.1
	c13.3,0,24.1-10.8,24.1-24.1s-10.8-24.1-24.1-24.1c-3.3,0-6.4,0.7-9.3,1.8l1.5,2.6C139,107,141.6,106.5,144.4,106.5z"/>
<path d="M131.4,110.9c1.6-1.2,3.3-2.2,5.2-3l-1.5-2.6c-1.9,0.8-3.6,1.8-5.2,3L131.4,110.9z"/>
<path d="M123.3,127.5c0-1,0.1-2,0.2-3h-3c-0.1,1-0.2,2-0.2,3s0.1,2,0.2,3h3C123.4,129.5,123.3,128.5,123.3,127.5z"/>
</svg>
