<?xml version="1.0" encoding="utf-8"?>
<!-- Generator: Adobe Illustrator 19.1.0, SVG Export Plug-In . SVG Version: 6.00 Build 0)  -->
<svg version="1.1" id="Layer_1" xmlns="http://www.w3.org/2000/svg" xmlns:xlink="http://www.w3.org/1999/xlink" x="0px" y="0px"
	 viewBox="0 0 230.8 127.9" style="enable-background:new 0 0 230.8 127.9;" xml:space="preserve">
<g>
	<g>
		<path d="M34.3,54.2C19.4,54.2,7.2,42,7.2,27.1C7.2,12.1,19.4,0,34.3,0c14.9,0,27.1,12.1,27.1,27.1C61.4,42,49.3,54.2,34.3,54.2z
			 M34.3,6c-11.6,0-21.1,9.4-21.1,21.1c0,11.6,9.4,21.1,21.1,21.1c11.6,0,21.1-9.4,21.1-21.1C55.4,15.5,45.9,6,34.3,6z"/>
	</g>
	<g>
		<path d="M68.6,127.9H0V83.7c0-18.9,15.4-34.3,34.3-34.3c17.9,0,32.7,13.8,34.2,31.3h0.1V127.9z M6,121.8h56.6l0-38.2
			c0-15.6-12.7-28.3-28.3-28.3C18.7,55.4,6,68.1,6,83.7V121.8z"/>
	</g>
</g>
<g>
	<g>
		<path d="M196.4,54.2c-14.9,0-27.1-12.1-27.1-27.1c0-14.9,12.1-27.1,27.1-27.1s27.1,12.1,27.1,27.1C223.5,42,211.4,54.2,196.4,54.2
			z M196.4,6c-11.6,0-21.1,9.4-21.1,21.1c0,11.6,9.4,21.1,21.1,21.1s21.1-9.4,21.1-21.1C217.5,15.5,208,6,196.4,6z"/>
	</g>
	<g>
		<path d="M230.8,127.9h-68.6V83.7c0-18.9,15.4-34.3,34.3-34.3c17.9,0,32.7,13.8,34.2,31.3h0.1V127.9z M168.1,121.8h56.6l0-38.2
			c0-15.6-12.7-28.3-28.3-28.3s-28.3,12.7-28.3,28.3V121.8z"/>
	</g>
</g>
<g>
	<rect x="80.1" y="52.5" width="71.5" height="6"/>
</g>
</svg>
