<?xml version="1.0" encoding="UTF-8" standalone="no"?>
<svg width="756px" height="220px" viewBox="0 0 756 220" version="1.1" xmlns="http://www.w3.org/2000/svg" xmlns:xlink="http://www.w3.org/1999/xlink">
    <!-- Generator: Sketch 3.6.1 (26313) - http://www.bohemiancoding.com/sketch -->
    <title>Artboard 13</title>
    <desc>Created with Sketch.</desc>
    <defs></defs>
    <g id="Page-1" stroke="none" stroke-width="1" fill="none" fill-rule="evenodd">
        <g id="Artboard-13">
            <g id="Group-2" opacity="0.680000007" transform="translate(-860.000000, -262.000000)" stroke="#E2E2E2" stroke-linecap="square">
                <path d="M522.903652,14.3669076 L961.112472,778.791077" id="Line"></path>
                <path d="M649.760019,14.3669076 L1087.96884,778.791077" id="Line"></path>
                <path d="M775.883113,14.3669076 L1214.09193,778.791077" id="Line"></path>
                <path d="M902.006206,14.3669076 L1340.21503,778.791077" id="Line"></path>
                <path d="M1028.1293,14.3669076 L1466.33812,778.791077" id="Line"></path>
                <path d="M1154.27607,14.3669076 L1592.48489,778.791077" id="Line"></path>
                <path d="M1280.48981,14 L1471.79769,347.72301 C1554.098,491.290063 1718.69863,778.42417 1718.69863,778.42417" id="Line"></path>
                <path d="M1399,1.66751144e-16 L1590.30788,333.72301 C1672.60819,477.290063 1837.20882,764.42417 1837.20882,764.42417" id="Line"></path>
                <path d="M505.593992,14.3669076 L943.802813,778.791077" id="Line" transform="translate(724.698403, 396.578992) scale(-1, 1) translate(-724.698403, -396.578992) "></path>
                <path d="M631.717086,14.3669076 L1069.92591,778.791077" id="Line" transform="translate(850.821496, 396.578992) scale(-1, 1) translate(-850.821496, -396.578992) "></path>
                <path d="M218.995616,270.735879 L1637.83351,270.735879" id="Line"></path>
                <path d="M218.995616,380.808148 L1661.5326,380.808148" id="Line"></path>
                <path d="M757.840179,14.3669076 L1196.049,778.791077" id="Line" transform="translate(976.944590, 396.578992) scale(-1, 1) translate(-976.944590, -396.578992) "></path>
                <path d="M883.963273,14.3669076 L1322.17209,778.791077" id="Line" transform="translate(1103.067683, 396.578992) scale(-1, 1) translate(-1103.067683, -396.578992) "></path>
                <path d="M1010.11004,14.3669076 L1448.31886,778.791077" id="Line" transform="translate(1229.214451, 396.578992) scale(-1, 1) translate(-1229.214451, -396.578992) "></path>
                <path d="M1136.25681,14.3669076 L1574.46563,778.791077" id="Line" transform="translate(1355.361218, 396.578992) scale(-1, 1) translate(-1355.361218, -396.578992) "></path>
                <path d="M1262.46884,15.0013072 L1700.67766,779.425477" id="Line" transform="translate(1481.573251, 397.213392) scale(-1, 1) translate(-1481.573251, -397.213392) "></path>
                <path d="M1397,1.66751144e-16 L1835.20882,764.42417" id="Line" transform="translate(1616.104410, 382.212085) scale(-1, 1) translate(-1616.104410, -382.212085) "></path>
            </g>
            <polygon id="Polygon-1" stroke="#E5E5E5" stroke-width="3" fill="#FFFFFF" transform="translate(378.222168, 118.928619) rotate(-270.000000) translate(-378.222168, -118.928619) " points="378.222168 114.300689 382.230073 116.614654 382.230073 121.242583 378.222168 123.556548 374.214263 121.242583 374.214263 116.614654 "></polygon>
            <polygon id="Polygon-1" stroke="#E5E5E5" stroke-width="3" fill="#FFFFFF" transform="translate(189.155518, 8.898345) rotate(-270.000000) translate(-189.155518, -8.898345) " points="189.155518 4.27041571 193.163422 6.58438055 193.163422 11.2123102 189.155518 13.5262751 185.147613 11.2123102 185.147613 6.58438055 "></polygon>
            <polygon id="Polygon-1" stroke="#E5E5E5" stroke-width="3" fill="#FFFFFF" transform="translate(694.155518, 8.898345) rotate(-270.000000) translate(-694.155518, -8.898345) " points="694.155518 4.27041571 698.163422 6.58438055 698.163422 11.2123102 694.155518 13.5262751 690.147613 11.2123102 690.147613 6.58438055 "></polygon>
        </g>
    </g>
</svg>