<?xml version="1.0" encoding="UTF-8" standalone="no"?>
<svg width="756px" height="440px" viewBox="0 0 756 440" version="1.1" xmlns="http://www.w3.org/2000/svg" xmlns:xlink="http://www.w3.org/1999/xlink">
    <!-- Generator: Sketch 3.8.3 (29802) - http://www.bohemiancoding.com/sketch -->
    <title>Artboard 13</title>
    <desc>Created with Sketch.</desc>
    <defs></defs>
    <g id="Page-1" stroke="none" stroke-width="1" fill="none" fill-rule="evenodd">
        <g id="Artboard-13">
            <rect id="Rectangle-191" fill="#F2F2F2" x="-4" y="-11" width="770" height="461"></rect>
            <circle id="Oval-1092" fill="#DFDFDF" cx="62.5" cy="8.5" r="3.5"></circle>
            <circle id="Oval-1092" fill="#DFDFDF" cx="315.5" cy="8.5" r="3.5"></circle>
            <circle id="Oval-1092" fill="#DFDFDF" cx="504.5" cy="118.5" r="3.5"></circle>
            <circle id="Oval-1092" fill="#DFDFDF" cx="694.5" cy="8.5" r="3.5"></circle>
            <rect id="Rectangle-189" fill="#DFDFDF" x="123" y="116" width="7" height="7"></rect>
            <rect id="Rectangle-189" fill="#DFDFDF" x="186" y="5" width="7" height="7"></rect>
            <rect id="Rectangle-189" fill="#DFDFDF" x="375.081055" y="115.571289" width="7" height="7"></rect>
            <rect id="Rectangle-189" fill="#DFDFDF" x="565" y="6" width="7" height="7"></rect>
            <polygon id="Path-591" fill="#DFDFDF" points="249.982178 113.735352 257.982178 121.735352 249.982178 121.735351"></polygon>
            <polygon id="Path-591" fill="#DFDFDF" points="438.982178 3.73535156 446.982178 11.7353516 438.982178 11.7353514"></polygon>
            <polygon id="Path-591" fill="#DFDFDF" points="627.982178 113.735352 635.982178 121.735352 627.982178 121.735351"></polygon>
            <circle id="Oval-1092" fill="#DFDFDF" cx="62.5" cy="228.5" r="3.5"></circle>
            <circle id="Oval-1092" fill="#DFDFDF" cx="315.5" cy="228.5" r="3.5"></circle>
            <circle id="Oval-1092" fill="#DFDFDF" cx="504.5" cy="339.5" r="3.5"></circle>
            <circle id="Oval-1092" fill="#DFDFDF" cx="694.5" cy="228.5" r="3.5"></circle>
            <rect id="Rectangle-189" fill="#DFDFDF" x="123" y="336" width="7" height="7"></rect>
            <rect id="Rectangle-189" fill="#DFDFDF" x="186" y="226" width="7" height="7"></rect>
            <rect id="Rectangle-189" fill="#DFDFDF" x="375" y="336" width="7" height="7"></rect>
            <rect id="Rectangle-189" fill="#DFDFDF" x="565" y="226" width="7" height="7"></rect>
            <rect id="Rectangle-189" fill="#DFDFDF" x="753" y="116" width="7" height="7"></rect>
            <polygon id="Path-591" fill="#DFDFDF" points="248.982178 333.735352 256.982178 341.735352 248.982178 341.735351"></polygon>
            <polygon id="Path-591" fill="#DFDFDF" points="438.982178 223.735352 446.982178 231.735352 438.982178 231.735351"></polygon>
            <polygon id="Path-591" fill="#DFDFDF" points="627.982178 334.735352 635.982178 342.735352 627.982178 342.735351"></polygon>
            <rect id="Rectangle-189" fill="#DFDFDF" x="-3" y="116" width="7" height="7"></rect>
            <rect id="Rectangle-189" fill="#DFDFDF" x="753" y="336" width="7" height="7"></rect>
            <rect id="Rectangle-189" fill="#DFDFDF" x="-3" y="336" width="7" height="7"></rect>
            <rect id="Rectangle-209" fill-opacity="0.01" fill="#000000" transform="translate(132.568771, 217.138525) rotate(30.000000) translate(-132.568771, -217.138525) " x="78.0687708" y="-99.1207023" width="109" height="632.518455"></rect>
            <rect id="Rectangle-209" fill-opacity="0.01" fill="#000000" transform="translate(364.568771, 251.138525) rotate(30.000000) translate(-364.568771, -251.138525) " x="310.068771" y="-65.1207023" width="109" height="632.518455"></rect>
            <rect id="Rectangle-209" fill-opacity="0.01" fill="#000000" transform="translate(601.568771, 280.138525) rotate(30.000000) translate(-601.568771, -280.138525) " x="547.068771" y="-36.1207023" width="109" height="632.518455"></rect>
            <rect id="Rectangle-209" fill-opacity="0.01" fill="#000000" transform="translate(696.568771, 551.138525) rotate(30.000000) translate(-696.568771, -551.138525) " x="642.068771" y="234.879298" width="109" height="632.518455"></rect>
            <rect id="Rectangle-209" fill-opacity="0.01" fill="#000000" transform="translate(-12.672002, 32.138525) rotate(30.000000) translate(12.672002, -32.138525) " x="-67.1720018" y="-284.120702" width="109" height="632.518455"></rect>
        </g>
    </g>
</svg>