<?xml version="1.0" encoding="UTF-8" standalone="no"?>
<svg width="756px" height="440px" viewBox="0 0 756 440" version="1.1" xmlns="http://www.w3.org/2000/svg" xmlns:xlink="http://www.w3.org/1999/xlink">
    <!-- Generator: Sketch 3.7 (28169) - http://www.bohemiancoding.com/sketch -->
    <title>Artboard 13</title>
    <desc>Created with Sketch.</desc>
    <defs></defs>
    <g id="Page-1" stroke="none" stroke-width="1" fill="none" fill-rule="evenodd">
        <g id="Artboard-13">
            <rect id="Rectangle-191" fill="#F2F2F2" x="-4" y="-11" width="770" height="461"></rect>
            <g id="Group-2" opacity="0.689999998" transform="translate(-860.000000, -262.000000)" stroke="#E2E2E2" stroke-linecap="square">
                <path d="M522.903652,14.3669076 L961.112472,778.791077" id="Line"></path>
                <path d="M649.760019,14.3669076 L1087.96884,778.791077" id="Line"></path>
                <path d="M775.883113,14.3669076 L1214.09193,778.791077" id="Line"></path>
                <path d="M902.006206,14.3669076 L1340.21503,778.791077" id="Line"></path>
                <path d="M1028.1293,14.3669076 L1466.33812,778.791077" id="Line"></path>
                <path d="M1154.27607,14.3669076 L1592.48489,778.791077" id="Line"></path>
                <path d="M1280.48981,14 L1471.79769,347.72301 C1554.098,491.290063 1718.69863,778.42417 1718.69863,778.42417" id="Line"></path>
                <path d="M1399,1.66751144e-16 L1590.30788,333.72301 C1672.60819,477.290063 1837.20882,764.42417 1837.20882,764.42417" id="Line"></path>
                <path d="M505.593992,14.3669076 L943.802813,778.791077" id="Line" transform="translate(724.698403, 396.578992) scale(-1, 1) translate(-724.698403, -396.578992) "></path>
                <path d="M631.717086,14.3669076 L1069.92591,778.791077" id="Line" transform="translate(850.821496, 396.578992) scale(-1, 1) translate(-850.821496, -396.578992) "></path>
                <path d="M218.995616,270.735879 L1637.83351,270.735879" id="Line"></path>
                <path d="M325.378567,601.167251 L1653.50015,601.167251" id="Line"></path>
                <path d="M218.995616,380.808148 L1661.5326,380.808148" id="Line"></path>
                <path d="M218.995616,490.880416 L1631.55641,490.880416" id="Line"></path>
                <path d="M757.840179,14.3669076 L1196.049,778.791077" id="Line" transform="translate(976.944590, 396.578992) scale(-1, 1) translate(-976.944590, -396.578992) "></path>
                <path d="M883.963273,14.3669076 L1322.17209,778.791077" id="Line" transform="translate(1103.067683, 396.578992) scale(-1, 1) translate(-1103.067683, -396.578992) "></path>
                <path d="M1010.11004,14.3669076 L1448.31886,778.791077" id="Line" transform="translate(1229.214451, 396.578992) scale(-1, 1) translate(-1229.214451, -396.578992) "></path>
                <path d="M1136.25681,14.3669076 L1574.46563,778.791077" id="Line" transform="translate(1355.361218, 396.578992) scale(-1, 1) translate(-1355.361218, -396.578992) "></path>
                <path d="M1262.46884,15.0013072 L1700.67766,779.425477" id="Line" transform="translate(1481.573251, 397.213392) scale(-1, 1) translate(-1481.573251, -397.213392) "></path>
                <path d="M1397,1.66751144e-16 L1835.20882,764.42417" id="Line" transform="translate(1616.104410, 382.212085) scale(-1, 1) translate(-1616.104410, -382.212085) "></path>
                <path d="M1431,161 L1869.20882,925.42417" id="Line" transform="translate(1650.104410, 543.212085) scale(-1, 1) translate(-1650.104410, -543.212085) "></path>
            </g>
            <polygon id="Polygon-1" stroke="#E5E5E5" stroke-width="2.5" fill="#FFFFFF" transform="translate(378.169790, 118.978769) rotate(-270.000000) translate(-378.169790, -118.978769) " points="378.16979 114.925771 381.67979 116.95227 381.67979 121.005269 378.16979 123.031768 374.65979 121.005269 374.65979 116.95227"></polygon>
            <polygon id="Polygon-1" stroke="#E5E5E5" stroke-width="3" fill="#FFFFFF" transform="translate(189.155518, 8.898345) rotate(-270.000000) translate(-189.155518, -8.898345) " points="189.155518 4.27041571 193.163422 6.58438055 193.163422 11.2123102 189.155518 13.5262751 185.147613 11.2123102 185.147613 6.58438055"></polygon>
            <polygon id="Polygon-1" stroke="#DDDDDD" stroke-width="3" fill="#FFFFFF" transform="translate(694.155518, 8.898345) rotate(-270.000000) translate(-694.155518, -8.898345) " points="694.155518 4.27041571 698.163422 6.58438055 698.163422 11.2123102 694.155518 13.5262751 690.147613 11.2123102 690.147613 6.58438055"></polygon>
            <polygon id="Polygon-1" stroke="#DDDDDD" stroke-width="3" fill="#FFFFFF" transform="translate(62.783691, 229.036041) rotate(-270.000000) translate(-62.783691, -229.036041) " points="62.7836914 224.408111 66.7915961 226.722076 66.7915961 231.350005 62.7836914 233.66397 58.7757867 231.350005 58.7757867 226.722076"></polygon>
            <polygon id="Polygon-1" stroke="#DDDDDD" stroke-width="2.5" fill="#FFFFFF" transform="translate(504.448598, 339.191172) rotate(-270.000000) translate(-504.448598, -339.191172) " points="504.448598 335.138173 507.958598 337.164672 507.958598 341.217671 504.448598 343.244171 500.938598 341.217671 500.938598 337.164672"></polygon>
            <path d="M567.788818,233.404785 C570.2741,233.404785 572.288818,231.390067 572.288818,228.904785 C572.288818,226.419504 570.2741,224.404785 567.788818,224.404785 C565.303537,224.404785 563.288818,226.419504 563.288818,228.904785 C563.288818,231.390067 565.303537,233.404785 567.788818,233.404785 Z" id="Oval-1098" stroke="#DDDDDD" fill="#FFFFFF"></path>
            <path d="M567.840576,231.388428 C569.221288,231.388428 570.340576,230.26914 570.340576,228.888428 C570.340576,227.507716 569.221288,226.388428 567.840576,226.388428 C566.459864,226.388428 565.340576,227.507716 565.340576,228.888428 C565.340576,230.26914 566.459864,231.388428 567.840576,231.388428 Z" id="Oval-1098" fill="#EBEBEB"></path>
            <path d="M126.061035,123.364502 C128.546317,123.364502 130.561035,121.349783 130.561035,118.864502 C130.561035,116.379221 128.546317,114.364502 126.061035,114.364502 C123.575754,114.364502 121.561035,116.379221 121.561035,118.864502 C121.561035,121.349783 123.575754,123.364502 126.061035,123.364502 Z" id="Oval-1098" stroke="#EBEBEB" fill="#FFFFFF"></path>
            <path d="M126.033936,121.332275 C127.414647,121.332275 128.533936,120.212987 128.533936,118.832275 C128.533936,117.451564 127.414647,116.332275 126.033936,116.332275 C124.653224,116.332275 123.533936,117.451564 123.533936,118.832275 C123.533936,120.212987 124.653224,121.332275 126.033936,121.332275 Z" id="Oval-1098" fill="#EBEBEB"></path>
            <path d="M252.208008,343.703857 C254.693289,343.703857 256.708008,341.689139 256.708008,339.203857 C256.708008,336.718576 254.693289,334.703857 252.208008,334.703857 C249.722726,334.703857 247.708008,336.718576 247.708008,339.203857 C247.708008,341.689139 249.722726,343.703857 252.208008,343.703857 Z" id="Oval-1098" stroke="#EBEBEB" fill="#FFFFFF"></path>
            <path d="M252.238281,341.692383 C253.618993,341.692383 254.738281,340.573095 254.738281,339.192383 C254.738281,337.811671 253.618993,336.692383 252.238281,336.692383 C250.857569,336.692383 249.738281,337.811671 249.738281,339.192383 C249.738281,340.573095 250.857569,341.692383 252.238281,341.692383 Z" id="Oval-1098" fill="#EBEBEB"></path>
        </g>
    </g>
</svg>